<svg width="40" height="40" viewBox="0 0 40 40" fill="none" xmlns="http://www.w3.org/2000/svg">
<path d="M0 20C0 8.95431 8.95431 0 20 0C31.0457 0 40 8.95431 40 20C40 31.0457 31.0457 40 20 40C8.95431 40 0 31.0457 0 20Z" fill="#F1F5F8"/>
<path d="M14.5359 25.098C13.6306 25.098 12.7952 24.888 12.0299 24.468C11.2739 24.0387 10.6719 23.446 10.2239 22.69C9.78522 21.9247 9.56589 21.066 9.56589 20.114C9.56589 19.162 9.78522 18.308 10.2239 17.552C10.6719 16.796 11.2739 16.208 12.0299 15.788C12.7952 15.3587 13.6306 15.144 14.5359 15.144C15.4506 15.144 16.2859 15.3587 17.0419 15.788C17.8072 16.208 18.4092 16.796 18.8479 17.552C19.2866 18.308 19.5059 19.162 19.5059 20.114C19.5059 21.066 19.2866 21.9247 18.8479 22.69C18.4092 23.446 17.8072 24.0387 17.0419 24.468C16.2859 24.888 15.4506 25.098 14.5359 25.098ZM14.5359 23.712C15.1799 23.712 15.7539 23.5673 16.2579 23.278C16.7619 22.9793 17.1539 22.5593 17.4339 22.018C17.7232 21.4673 17.8679 20.8327 17.8679 20.114C17.8679 19.3953 17.7232 18.7653 17.4339 18.224C17.1539 17.6827 16.7619 17.2673 16.2579 16.978C15.7539 16.6887 15.1799 16.544 14.5359 16.544C13.8919 16.544 13.3179 16.6887 12.8139 16.978C12.3099 17.2673 11.9132 17.6827 11.6239 18.224C11.3439 18.7653 11.2039 19.3953 11.2039 20.114C11.2039 20.8327 11.3439 21.4673 11.6239 22.018C11.9132 22.5593 12.3099 22.9793 12.8139 23.278C13.3179 23.5673 13.8919 23.712 14.5359 23.712ZM30.9044 15.27V25H29.3084V18.336L26.3404 25H25.2344L22.2524 18.336V25H20.6564V15.27H22.3784L25.7944 22.9L29.1964 15.27H30.9044Z" fill="#646D75"/>
</svg>
