<svg width="14" height="15" viewBox="0 0 14 15" fill="none" xmlns="http://www.w3.org/2000/svg">
<path d="M3.08979 14.0833C2.67424 14.0833 2.31924 13.936 2.02479 13.6415C1.73049 13.3468 1.58333 12.9914 1.58333 12.5755V1.98891H0.75V0.73776H4.5V0H9.5V0.73776H13.25V1.98891H12.4167V12.5755C12.4167 12.9969 12.2708 13.3535 11.9792 13.6454C11.6875 13.9374 11.3312 14.0833 10.9102 14.0833H3.08979ZM11.1667 1.98891H2.83333V12.5755C2.83333 12.6504 2.85736 12.7119 2.90542 12.76C2.95347 12.8081 3.01493 12.8322 3.08979 12.8322H10.9102C10.9744 12.8322 11.0331 12.8054 11.0865 12.7519C11.1399 12.6985 11.1667 12.6397 11.1667 12.5755V1.98891ZM4.83667 11.164H6.08646V3.6571H4.83667V11.164ZM7.91354 11.164H9.16333V3.6571H7.91354V11.164Z" fill="#0A0C0E"/>
</svg>
