<svg width="12" height="14" viewBox="0 0 12 14" fill="none" xmlns="http://www.w3.org/2000/svg">
<path d="M2.48081 13.3742C2.10681 13.3742 1.78731 13.2417 1.52231 12.9765C1.25744 12.7113 1.125 12.3915 1.125 12.0172L1.125 2.48924L0.375 2.48924L0.375 1.3632L3.75 1.3632L3.75 0.699218L8.25 0.699217L8.25 1.3632L11.625 1.3632L11.625 2.48923L10.875 2.48923L10.875 12.0172C10.875 12.3964 10.7438 12.7174 10.4813 12.9801C10.2188 13.2428 9.89806 13.3742 9.51919 13.3742L2.48081 13.3742ZM9.75 2.48923L2.25 2.48924L2.25 12.0172C2.25 12.0846 2.27163 12.14 2.31488 12.1833C2.35813 12.2265 2.41344 12.2482 2.48081 12.2482L9.51919 12.2482C9.57694 12.2482 9.62982 12.2241 9.67781 12.1759C9.72594 12.1279 9.75 12.075 9.75 12.0172L9.75 2.48923ZM4.053 10.7468L5.17781 10.7468L5.17781 3.99061L4.053 3.99061L4.053 10.7468ZM6.82219 10.7468L7.947 10.7468L7.947 3.99061L6.82219 3.99061L6.82219 10.7468Z" fill="#353C43"/>
</svg>
