<svg width="14" height="14" viewBox="0 0 14 14" fill="none" xmlns="http://www.w3.org/2000/svg">
<path d="M1.44118 12.5588L2.44296 12.5588L10.5719 4.42984L9.57016 3.42806L1.44118 11.557L1.44118 12.5588ZM0.250002 13.75L0.250002 11.0623L10.7248 0.592064C10.8449 0.483005 10.9774 0.398763 11.1225 0.339336C11.2677 0.279777 11.4199 0.249998 11.5791 0.249998C11.7383 0.249998 11.8925 0.278256 12.0417 0.33477C12.1909 0.391285 12.3231 0.481152 12.4381 0.604372L13.4079 1.5863C13.5312 1.70131 13.619 1.83367 13.6714 1.98336C13.7238 2.13305 13.75 2.28274 13.75 2.43243C13.75 2.59218 13.7227 2.74459 13.6682 2.88965C13.6137 3.03484 13.5269 3.16745 13.4079 3.2875L2.93769 13.75L0.250002 13.75ZM10.0623 3.93768L9.57016 3.42806L10.5719 4.42984L10.0623 3.93768Z" fill="#353C43"/>
</svg>
