<svg width="16" height="16" viewBox="0 0 16 16" fill="none" xmlns="http://www.w3.org/2000/svg">
<path d="M1.82353 14.1765H2.93662L11.9688 5.14426L10.8557 4.03118L1.82353 13.0634V14.1765ZM0.5 15.5V12.5137L12.1387 0.880073C12.2721 0.758897 12.4193 0.665294 12.5805 0.599265C12.7418 0.533088 12.911 0.5 13.0879 0.5C13.2648 0.5 13.4361 0.531397 13.6018 0.594192C13.7677 0.656986 13.9146 0.756838 14.0424 0.893749L15.1199 1.98478C15.2568 2.11257 15.3544 2.25963 15.4126 2.42596C15.4709 2.59228 15.5 2.7586 15.5 2.92493C15.5 3.10243 15.4697 3.27177 15.4091 3.43294C15.3485 3.59427 15.2521 3.74162 15.1199 3.875L3.48632 15.5H0.5ZM11.4026 4.59743L10.8557 4.03118L11.9688 5.14426L11.4026 4.59743Z" fill="#0A0C0E"/>
</svg>
