<svg width="16" height="13" viewBox="0 0 16 13" fill="none" xmlns="http://www.w3.org/2000/svg">
<path d="M8 12.75L7.17219 12.0135C5.92894 10.8972 4.90081 9.93799 4.08781 9.13583C3.27481 8.33354 2.63056 7.61953 2.15506 6.99378C1.67956 6.36816 1.34738 5.79741 1.1585 5.28152C0.969501 4.76576 0.875001 4.24239 0.875001 3.71141C0.875 2.65799 1.23388 1.77603 1.95163 1.06555C2.6695 0.355181 3.56063 -4.6957e-07 4.625 -6.55671e-07C5.27975 -7.70151e-07 5.8985 0.151548 6.48125 0.454647C7.064 0.757746 7.57025 1.19241 8 1.75865C8.42975 1.19241 8.936 0.757745 9.51875 0.454647C10.1015 0.151548 10.7203 -1.7214e-06 11.375 -1.83588e-06C12.4394 -2.02198e-06 13.3305 0.35518 14.0484 1.06554C14.7661 1.77603 15.125 2.65799 15.125 3.71141C15.125 4.24239 15.0305 4.76576 14.8415 5.28152C14.6526 5.79741 14.3204 6.36816 13.8449 6.99378C13.3694 7.61953 12.7264 8.33354 11.9158 9.13582C11.1053 9.93798 10.0759 10.8972 8.82782 12.0135L8 12.75ZM8 11.2456C9.2 10.1769 10.1875 9.26096 10.9625 8.49765C11.7375 7.73446 12.35 7.07141 12.8 6.50852C13.25 5.94562 13.5625 5.44575 13.7375 5.00892C13.9125 4.57221 14 4.13971 14 3.71141C14 2.96913 13.75 2.35056 13.25 1.8557C12.75 1.36085 12.125 1.11342 11.375 1.11342C10.7828 1.11342 10.2354 1.27969 9.73288 1.61224C9.2305 1.9449 8.83269 2.40765 8.53944 3.00049L7.46056 3.00049C7.16244 2.40283 6.76338 1.9389 6.26338 1.60871C5.76338 1.27852 5.21725 1.11342 4.625 1.11342C3.87975 1.11342 3.25594 1.36085 2.75356 1.85571C2.25119 2.35056 2 2.96913 2 3.71141C2 4.13971 2.0875 4.57221 2.2625 5.00892C2.4375 5.44575 2.75 5.94562 3.2 6.50852C3.65 7.07142 4.2625 7.73328 5.0375 8.49412C5.8125 9.25496 6.8 10.1721 8 11.2456Z" fill="#353C43"/>
</svg>
