<svg width="20" height="17" viewBox="0 0 20 17" fill="none" xmlns="http://www.w3.org/2000/svg">
<path d="M10 17L8.89625 16.018C7.23858 14.5296 5.86775 13.2506 4.78375 12.1811C3.69975 11.1114 2.84075 10.1594 2.20675 9.32505C1.57275 8.49089 1.12983 7.72988 0.878 7.04203C0.626 6.35435 0.5 5.65652 0.5 4.94855C0.5 3.54399 0.9785 2.36805 1.9355 1.42073C2.89267 0.473576 4.08083 0 5.5 0C6.373 0 7.198 0.202066 7.975 0.606197C8.752 1.01033 9.427 1.58989 10 2.34487C10.573 1.58989 11.248 1.01033 12.025 0.606197C12.802 0.202066 13.627 0 14.5 0C15.9192 0 17.1073 0.473576 18.0645 1.42073C19.0215 2.36805 19.5 3.54399 19.5 4.94855C19.5 5.65652 19.374 6.35435 19.122 7.04203C18.8702 7.72988 18.4272 8.49089 17.7932 9.32505C17.1592 10.1594 16.3018 11.1114 15.221 12.1811C14.1403 13.2506 12.7679 14.5296 11.1038 16.018L10 17ZM10 14.9941C11.6 13.5693 12.9167 12.348 13.95 11.3302C14.9833 10.3126 15.8 9.42855 16.4 8.67802C17 7.92749 17.4167 7.26101 17.65 6.67856C17.8833 6.09628 18 5.51961 18 4.94855C18 3.95884 17.6667 3.13408 17 2.47427C16.3333 1.81447 15.5 1.48456 14.5 1.48456C13.7103 1.48456 12.9805 1.70626 12.3105 2.14965C11.6407 2.5932 11.1102 3.21021 10.7192 4.00066H9.28075C8.88325 3.20377 8.35117 2.5852 7.6845 2.14495C7.01783 1.70469 6.28967 1.48456 5.5 1.48456C4.50633 1.48456 3.67458 1.81447 3.00475 2.47427C2.33492 3.13408 2 3.95884 2 4.94855C2 5.51961 2.11667 6.09628 2.35 6.67856C2.58333 7.26101 3 7.92749 3.6 8.67802C4.2 9.42855 5.01667 10.311 6.05 11.3255C7.08333 12.34 8.4 13.5628 10 14.9941Z" fill="#8C959C"/>
</svg>
