<svg width="16" height="15" viewBox="0 0 16 15" fill="none" xmlns="http://www.w3.org/2000/svg">
<path d="M8.00065 14.5007L6.85273 13.497C5.5201 12.3261 4.41836 11.316 3.54753 10.4668C2.67669 9.61759 1.98398 8.85522 1.4694 8.17969C0.954818 7.50417 0.595269 6.88333 0.390755 6.31718C0.186241 5.75103 0.0839844 5.17201 0.0839844 4.58012C0.0839844 3.37062 0.499609 2.36055 1.33086 1.54992C2.16211 0.739298 3.19787 0.333984 4.43815 0.333984C5.12426 0.333984 5.77739 0.475522 6.39753 0.758598C7.01766 1.04167 7.55204 1.44055 8.00065 1.95524C8.44926 1.44055 8.98364 1.04167 9.60378 0.758598C10.2239 0.475522 10.877 0.333984 11.5632 0.333984C12.8034 0.333984 13.8392 0.739298 14.6704 1.54992C15.5017 2.36055 15.9173 3.37062 15.9173 4.58012C15.9173 5.17201 15.8151 5.75103 15.6105 6.31718C15.406 6.88333 15.0465 7.50417 14.5319 8.17969C14.0173 8.85522 13.3246 9.61759 12.4538 10.4668C11.5829 11.316 10.4812 12.3261 9.14857 13.497L8.00065 14.5007Z" fill="#8C959C"/>
</svg>
