<svg width="16" height="16" viewBox="0 0 16 16" fill="none" xmlns="http://www.w3.org/2000/svg">
<path d="M2.42345 15.0846C2.00248 15.0846 1.64616 14.9388 1.35449 14.6471C1.06283 14.3555 0.916992 13.9992 0.916992 13.5782V2.42443C0.916992 2.00345 1.06283 1.64714 1.35449 1.35547C1.64616 1.0638 2.00248 0.917969 2.42345 0.917969H8.00824V2.16797H2.42345C2.35928 2.16797 2.30053 2.1947 2.2472 2.24818C2.19373 2.30151 2.16699 2.36026 2.16699 2.42443V13.5782C2.16699 13.6423 2.19373 13.7011 2.2472 13.7544C2.30053 13.8079 2.35928 13.8346 2.42345 13.8346H8.00824V15.0846H2.42345ZM11.526 11.559L10.6605 10.6551L12.6895 8.6263H5.58053V7.3763H12.6895L10.6605 5.34755L11.526 4.44359L15.0837 8.0013L11.526 11.559Z" fill="#1C1B1F"/>
</svg>
