<svg width="14" height="17" viewBox="0 0 14 17" fill="none" xmlns="http://www.w3.org/2000/svg">
<path d="M0.75 13.7358V12.486H2.25646V6.26786C2.25646 5.14717 2.60236 4.15627 3.29417 3.29516C3.98583 2.43404 4.87389 1.88328 5.95833 1.64286V1.1237C5.95833 0.834392 6.05951 0.588421 6.26188 0.385782C6.46424 0.183282 6.70993 0.0820312 6.99896 0.0820312C7.28813 0.0820312 7.53417 0.183282 7.73708 0.385782C7.94014 0.588421 8.04167 0.834392 8.04167 1.1237V1.64286C9.12611 1.88328 10.0142 2.43404 10.7058 3.29516C11.3976 4.15627 11.7435 5.14717 11.7435 6.26786V12.486H13.25V13.7358H0.75ZM6.99854 16.0756C6.58396 16.0756 6.22951 15.9281 5.93521 15.6331C5.64076 15.3381 5.49354 14.9834 5.49354 14.5691H8.50646C8.50646 14.9848 8.35882 15.3398 8.06354 15.6341C7.76826 15.9284 7.41326 16.0756 6.99854 16.0756ZM3.50646 12.486H10.4935V6.26786C10.4935 5.30314 10.1525 4.47974 9.47042 3.79766C8.78819 3.11543 7.96472 2.77432 7 2.77432C6.03528 2.77432 5.21181 3.11543 4.52958 3.79766C3.8475 4.47974 3.50646 5.30314 3.50646 6.26786V12.486Z" fill="#1C1B1F"/>
</svg>
