<svg width="172" height="24" viewBox="0 0 172 24" fill="none" xmlns="http://www.w3.org/2000/svg">
<path d="M12.9582 22.2688V14.4612L22.2688 17.9709V22.2774L12.9582 22.2688ZM1.72259 17.9752L11.2184 14.4568V22.2688H1.72259V17.9752ZM16.3948 9.49578L12.0581 7.86363L7.60524 9.51301V7.02817L12.0581 5.3831L16.412 7.02817L16.3948 9.49578ZM12.0883 12.2864L5.81374 14.6119V12.028L12.0581 9.71111L18.1819 12.0194V14.5817L12.0883 12.2864ZM22.2688 1.72259V16.1235L19.9088 15.232V10.8222L18.126 10.1504V5.84389L12.0581 3.53992L5.87404 5.82666V10.1331L4.09115 10.8179V15.2535L1.72259 16.1148V1.72259H22.2688ZM23.9914 0H0V24H24L23.9914 0Z" fill="#027AC2"/>
<path d="M41.6166 11.8814H36.7581V5.21227H41.6252C43.5241 5.21227 44.6571 6.44568 44.6571 8.51491C44.6571 9.30429 44.4374 11.8814 41.6252 11.8814M41.6715 3.5H34.9922V19.6737H36.7581V13.5792L41.6715 13.5588C44.4981 13.5588 46.3999 11.5273 46.3999 8.5033C46.3883 5.56052 44.4432 3.5 41.6715 3.5Z" fill="#0A0C0E"/>
<path d="M54.1501 7.51758C52.8408 7.51758 51.6009 8.19959 50.6558 9.4388L50.2107 10.0192V7.61045H48.4766V19.6747H50.2107V13.6585C50.2107 12.0449 50.7194 10.7564 51.6558 10.0018C52.2432 9.53333 52.9753 9.2859 53.7252 9.3024C54.0558 9.30568 54.3851 9.34361 54.7079 9.41558L55.0605 9.49394V7.61045L54.8148 7.57272C54.6 7.53577 54.3825 7.51732 54.1645 7.51758" fill="#0A0C0E"/>
<path d="M61.6975 18.1346C59.29 18.1346 57.4055 16.1524 57.4055 13.6189C57.4055 11.0853 59.3015 9.10311 61.6975 9.10311C64.0935 9.10311 65.9895 11.1346 65.9895 13.6189C65.9895 16.1031 64.0646 18.1346 61.6975 18.1346ZM61.6975 7.41406C58.394 7.41406 55.709 10.1972 55.709 13.6189C55.709 17.0405 58.394 19.8469 61.6975 19.8469C65.001 19.8469 67.6832 17.0521 67.6832 13.6189C67.6832 10.1856 64.9953 7.41406 61.6946 7.41406" fill="#0A0C0E"/>
<path d="M75.4007 18.1791C72.9932 18.1791 71.1059 16.1853 71.1059 13.643C71.1059 11.1007 73.0336 9.10405 75.4007 9.10405C77.7678 9.10405 79.736 11.1355 79.736 13.643C79.736 16.1505 77.7938 18.1791 75.4007 18.1791ZM79.6725 9.50454L79.2447 9.06632C78.7371 8.54176 78.1296 8.12521 77.4582 7.8415C76.7869 7.55779 76.0655 7.41274 75.3371 7.415C72.0192 7.415 69.418 10.1517 69.418 13.6575C69.418 17.0908 72.077 19.8826 75.3458 19.8826C76.0988 19.8962 76.8442 19.7299 77.5206 19.3974C78.197 19.0648 78.7849 18.5756 79.236 17.9701L79.6811 17.4216V19.6882H81.4153V3.5H79.6811L79.6725 9.50454Z" fill="#0A0C0E"/>
<path d="M93.1394 13.732C93.1394 16.3439 91.5989 18.1606 89.3821 18.1606C87.6479 18.1606 85.9138 16.9708 85.9138 14.3153V7.61133H84.1797V14.7477C84.1797 18.1113 86.7173 19.87 89.2231 19.87C89.89 19.8855 90.5513 19.7437 91.1536 19.4559C91.756 19.168 92.2827 18.7423 92.6914 18.2129L93.1336 17.6731V19.6756H94.8677V7.61133H93.1336L93.1394 13.732Z" fill="#0A0C0E"/>
<path d="M106.74 15.5807C106.425 16.3325 105.897 16.975 105.223 17.4289C104.548 17.8828 103.755 18.1282 102.943 18.1346C100.535 18.1346 98.6477 16.1524 98.6477 13.6189C98.6477 11.0853 100.541 9.10311 102.943 9.10311C103.757 9.1111 104.551 9.35979 105.225 9.81812C105.9 10.2764 106.425 10.9241 106.735 11.6802L106.827 11.8921L108.532 11.567L108.405 11.2391C107.989 10.1198 107.244 9.15422 106.268 8.4709C105.292 7.78758 104.132 7.41894 102.943 7.41406C99.6391 7.41406 96.9512 10.1972 96.9512 13.6189C96.9512 17.0405 99.6391 19.8469 102.943 19.8469C104.133 19.8348 105.293 19.4609 106.268 18.7745C107.243 18.0882 107.988 17.1214 108.405 16.0015L108.538 15.6678L106.827 15.3776L106.74 15.5807Z" fill="#0A0C0E"/>
<path d="M113.548 3.5H111.832V7.60944H109.303V9.25496H111.826L111.803 15.9299C111.803 17.4709 112.222 18.5825 113.048 19.2296C113.677 19.6839 114.44 19.9119 115.213 19.8768C115.853 19.8661 116.488 19.7774 117.106 19.6127L117.329 19.5576V17.8047L116.959 17.9092C116.44 18.0672 115.903 18.1551 115.361 18.1704C114.951 18.194 114.545 18.0819 114.205 17.8511C113.762 17.5145 113.54 16.8644 113.54 15.9154V9.24045H117.366V7.60944H113.548V3.5Z" fill="#0A0C0E"/>
<path d="M124.995 17.8976H121.879V5.27611H124.995C128.481 5.27611 131.009 7.93448 131.009 11.597C131.009 15.2595 128.481 17.8976 124.995 17.8976ZM124.995 3.5H120.119V19.6969H124.995C129.44 19.6969 132.799 16.2143 132.799 11.597C132.799 6.97967 129.44 3.5 124.995 3.5Z" fill="#0A0C0E"/>
<path d="M140.566 18.1346C138.158 18.1346 136.271 16.1524 136.271 13.6189C136.271 11.0853 138.158 9.10311 140.566 9.10311C142.973 9.10311 144.852 11.1288 144.852 13.6189C144.852 16.1089 142.927 18.1346 140.56 18.1346M140.56 7.41406C137.256 7.41406 134.568 10.1972 134.568 13.6189C134.568 17.0405 137.256 19.8469 140.56 19.8469C143.863 19.8469 146.548 17.0521 146.548 13.6189C146.548 10.1856 143.86 7.41406 140.56 7.41406Z" fill="#0A0C0E"/>
<path d="M157.999 15.5807C157.685 16.3318 157.158 16.974 156.484 17.4278C155.81 17.8817 155.019 18.1274 154.207 18.1346C151.8 18.1346 149.915 16.1524 149.915 13.6189C149.915 11.0853 151.788 9.10311 154.207 9.10311C155.022 9.1111 155.815 9.35979 156.49 9.81812C157.164 10.2764 157.689 10.9241 157.999 11.6802L158.092 11.8921L159.8 11.567L159.673 11.2391C159.256 10.12 158.51 9.15481 157.533 8.47161C156.557 7.78842 155.397 7.41957 154.207 7.41406C150.907 7.41406 148.219 10.1972 148.219 13.6189C148.219 17.0405 150.907 19.8469 154.207 19.8469C155.399 19.8354 156.558 19.4618 157.534 18.7754C158.51 18.0889 159.255 17.1219 159.673 16.0015L159.803 15.6678L158.092 15.3776L157.999 15.5807Z" fill="#0A0C0E"/>
<path d="M166.747 13.1119L171.932 7.60944H169.602L163.313 14.473V3.5H161.576V19.6737H163.313V16.6845L165.637 14.3569L169.842 19.6737H171.998L166.747 13.1119Z" fill="#0A0C0E"/>
</svg>
