<svg width="130" height="132" viewBox="0 0 130 132" fill="none" xmlns="http://www.w3.org/2000/svg">
<path d="M0 65.0003C0 29.1016 29.1016 0 65.0002 0C100.899 0 130 29.1016 130 65.0002V66.9998C130 102.898 100.899 132 65.0002 132C29.1016 132 0 102.899 0 66.9999V65.0003Z" fill="white"/>
<path fill-rule="evenodd" clip-rule="evenodd" d="M68.8247 17.9507C68.4674 18.4836 68.0206 18.9276 67.3952 19.2829C66.7698 19.5493 66.055 19.727 65.1615 19.727H62.5705L62.7492 12H65.3402C66.2337 12 66.9485 12.1776 67.4845 12.5329C68.11 12.8882 68.5567 13.3322 68.8247 13.8651C69.0928 14.4868 69.2715 15.1086 69.2715 15.9079C69.2715 16.7072 69.1821 17.4178 68.8247 17.9507ZM67.3059 17.9507C67.8419 17.5066 68.11 16.7961 68.11 15.9079C68.11 15.0197 67.9313 14.398 67.3952 13.8651C66.9485 13.4211 66.2337 13.1546 65.2509 13.0658H64L63.9107 18.5724H65.1615C66.055 18.6612 66.7698 18.3947 67.3059 17.9507ZM60.5152 19.0169L57.8348 19.3721L56.852 12.7109L55.6011 12.8886L56.6733 20.5267L60.6939 19.9938L60.5152 19.0169ZM53.278 21.3257L50.5082 18.9276L49.6148 19.1941L50.5082 22.125L49.3467 22.4803L47.1131 15.1086L49.7041 14.3092C50.5082 14.0428 51.223 14.0428 51.8484 14.3092C52.3845 14.5757 52.8312 15.1086 53.0099 15.7303C53.1886 16.352 53.0993 16.8849 52.9206 17.3289C52.7419 17.773 52.2952 18.2171 51.7591 18.4836L54.6182 20.8816L53.278 21.3257ZM49.3467 18.3059L50.6869 17.8618C51.6697 17.5954 52.0271 16.9737 51.7591 16.1743C51.6697 15.7303 51.4017 15.4638 51.1336 15.375C50.8656 15.1974 50.4189 15.1974 49.9721 15.375L48.6319 15.7303L49.3467 18.3059ZM43.986 18.2174C43.4499 17.8622 42.8244 17.5957 42.1097 17.5957C41.4843 17.5957 40.7695 17.7733 40.0547 18.0398C39.4293 18.395 38.8932 18.8391 38.5358 19.372C38.1784 19.9049 37.9997 20.5266 37.9997 21.2372C37.9997 21.9477 38.1784 22.5694 38.5358 23.2799C38.8932 23.9904 39.4293 24.5233 39.9654 24.8786C40.5908 25.3227 41.3056 25.5003 41.931 25.5003C42.5564 25.5003 43.2712 25.4115 43.8966 25.0562C44.522 24.701 45.0581 24.2569 45.4155 23.724C45.7729 23.1911 45.9516 22.5694 45.9516 21.8589C45.9516 21.1483 45.7729 20.5266 45.4155 19.8161C45.0581 19.1056 44.522 18.5727 43.986 18.2174ZM39.3399 21.2372C39.3399 20.7931 39.4293 20.349 39.6973 19.9937C39.876 19.6385 40.2334 19.2832 40.6801 19.0168C41.1269 18.8391 41.5736 18.7503 42.0203 18.7503C42.4671 18.7503 42.9138 18.9279 43.2712 19.1944C43.6286 19.4608 43.986 19.8161 44.254 20.349C44.4327 20.7931 44.6114 21.326 44.6114 21.77C44.6114 22.2141 44.4327 22.6582 44.254 23.0135C44.0753 23.3687 43.7179 23.6352 43.2712 23.9016C42.8244 24.1681 42.3777 24.2569 41.931 24.2569C41.4842 24.2569 41.0375 24.0793 40.6801 23.8128C40.3227 23.5464 39.876 23.1023 39.6973 22.6582C39.5186 22.2141 39.3399 21.6812 39.3399 21.2372ZM33.8006 21.7695L37.3745 28.8748L36.213 29.8518L31.0309 26.388L33.7113 31.9833L32.5498 33.0491L26.0275 28.4307L27.0996 27.5426L32.1924 31.4505L29.3333 25.5886L30.4054 24.7005L35.8556 28.3419L32.7285 22.6577L33.8006 21.7695ZM22.2748 38.9105L20.3092 37.667L22.0961 34.9138L21.292 34.3809L18.8796 38.1111L25.4019 42.3743L27.8143 38.644L26.9208 38.1111L25.1339 40.7756L23.0789 39.4434L24.6871 37.0453L23.883 36.5124L22.2748 38.9105ZM16.9139 41.4863L23.9723 44.5949L23.4362 45.7495L20.2197 44.3284L18.7902 47.6146L22.0067 49.0357L21.4706 50.1903L14.4122 47.0817L14.9483 45.9271L17.8967 47.2594L19.3263 43.9732L16.3778 42.6409L16.9139 41.4863ZM13.3402 50.1914L14.323 50.4579L13.7869 52.5006L20.3092 54.0993L20.0412 55.3427L13.5189 53.744L12.9828 55.7868L12 55.5204L13.3402 50.1914ZM81.1542 20.2597C81.2436 19.8156 81.2436 19.3715 81.0649 18.9274C80.8862 18.4833 80.6181 18.2169 80.0821 18.0393C80.5288 18.0393 80.8862 17.9505 81.2436 17.684C81.6009 17.4176 81.869 17.0623 81.9583 16.6182C82.137 16.0853 82.0477 15.5524 81.7796 15.1083C81.4222 14.6643 80.8862 14.309 80.1714 14.1314L77.223 13.332L75.168 20.7926L78.1164 21.5919C78.9205 21.8583 79.546 21.8583 80.0821 21.5919C80.6181 21.3255 80.9755 20.8814 81.1542 20.2597ZM79.9927 19.7268C79.9034 20.1708 79.6353 20.3485 79.3673 20.5261C79.0992 20.6149 78.6525 20.6149 78.2058 20.5261L76.6869 20.082L77.3123 17.684L78.8312 18.1281C79.2779 18.3057 79.6353 18.4833 79.814 18.7498C80.0821 19.0162 80.0821 19.3715 79.9927 19.7268ZM79.0992 17.3287L77.5804 16.8847L78.2058 14.6643L79.7247 15.1972C80.1714 15.286 80.4394 15.4636 80.6181 15.7301C80.7968 15.9965 80.7968 16.263 80.7075 16.6182C80.6181 16.9735 80.4394 17.1511 80.1714 17.3287C79.9034 17.4176 79.546 17.4176 79.0992 17.3287ZM86.6041 17.506L85.6213 19.6375L88.2123 20.7921L87.8549 21.6803L85.2639 20.4369L84.2811 22.6573L87.1402 23.9895L86.6934 24.8777L82.6729 23.0125L85.8893 15.9961L89.9099 17.8612L89.4632 18.7494L86.6041 17.506ZM92.5009 27.2767L90.2672 25.8557L93.9304 20.1715L92.8583 19.4609L88.659 25.9445L91.9648 28.0761L92.5009 27.2767ZM102.776 27.4537C102.955 28.0754 103.044 28.786 102.865 29.4077C102.687 30.1182 102.419 30.6511 101.882 31.2728C101.346 31.8057 100.81 32.2498 100.096 32.4274C99.4701 32.6939 98.7553 32.6939 98.1299 32.5162C97.5045 32.3386 96.879 32.0722 96.343 31.6281C95.8069 31.184 95.4495 30.5623 95.2708 29.9406C95.0921 29.3189 95.0028 28.6083 95.1815 27.9866C95.3602 27.3649 95.6282 26.7432 96.1643 26.1215C96.7003 25.5886 97.2364 25.1445 97.9512 24.9669C98.5766 24.7893 99.2914 24.7004 99.9168 24.8781C100.542 25.0557 101.168 25.3222 101.704 25.7662C102.15 26.2991 102.508 26.832 102.776 27.4537ZM99.6488 26.0327C99.202 25.9439 98.7553 25.9439 98.3086 26.1215C97.8619 26.2991 97.4151 26.5656 97.0577 27.0097C96.7003 27.4537 96.4323 27.8978 96.343 28.3419C96.2536 28.786 96.2536 29.23 96.343 29.6741C96.5217 30.1182 96.7003 30.4735 97.1471 30.8287C97.5045 31.184 97.9512 31.3616 98.3086 31.4504C98.666 31.5393 99.202 31.5393 99.6488 31.3616C100.096 31.184 100.542 30.9175 100.9 30.4735C101.257 30.0294 101.525 29.5853 101.614 29.1412C101.704 28.6972 101.704 28.2531 101.614 27.809C101.436 27.3649 101.257 27.0097 100.9 26.6544C100.814 26.6032 100.731 26.5521 100.651 26.5022L100.651 26.5021C100.312 26.2921 100.01 26.1044 99.6488 26.0327ZM103.759 39.8886L104.474 40.8655L110.818 36.2471L110.103 35.2701L105.457 38.6451L107.78 32.2504L107.065 31.2734L100.811 35.8919L101.525 36.8688L106.082 33.4938L103.759 39.8886ZM114.749 45.2162C114.57 45.9267 114.213 46.5484 113.587 47.0813L113.051 45.9267C113.319 45.5714 113.498 45.2162 113.587 44.7721C113.677 44.328 113.587 43.8839 113.319 43.351C113.14 42.907 112.783 42.5517 112.426 42.2853C112.068 42.0188 111.622 41.93 111.175 41.93C110.728 41.93 110.192 42.0188 109.745 42.2853C109.209 42.5517 108.762 42.8182 108.494 43.2622C108.226 43.6175 108.048 44.0616 108.048 44.5056C108.048 44.9497 108.137 45.3938 108.316 45.9267C108.584 46.5484 109.031 46.9037 109.567 47.1701C110.103 47.4366 110.728 47.4366 111.443 47.2589L110.192 44.6833L110.996 44.328L112.694 47.7918L111.622 48.3247C111.085 48.5024 110.549 48.5024 109.924 48.4135C109.388 48.3247 108.852 48.1471 108.405 47.7918C107.958 47.4366 107.512 46.9925 107.244 46.3708C106.886 45.6603 106.797 45.0385 106.797 44.328C106.797 43.6175 107.065 43.0846 107.512 42.5517C107.958 42.0188 108.494 41.5747 109.12 41.2195C109.745 40.8642 110.46 40.7754 111.175 40.7754C111.89 40.7754 112.426 41.0418 113.051 41.3971C113.587 41.7524 114.034 42.2853 114.391 42.9958C114.749 43.7063 114.838 44.4168 114.749 45.2162ZM110.817 55.3418C111.086 55.6971 111.443 55.8747 111.8 55.9635C112.121 56.1228 112.441 56.0678 112.891 55.9907L112.892 55.9906L112.893 55.9903C112.944 55.9816 112.997 55.9725 113.051 55.9635C113.498 55.8747 113.855 55.6082 114.123 55.3418C114.169 55.2501 114.216 55.1643 114.26 55.0814L114.26 55.0812C114.388 54.8429 114.504 54.6283 114.57 54.3648C114.659 54.0984 114.749 53.6543 114.749 53.1214C114.749 52.8712 114.777 52.6774 114.802 52.5082V52.5081C114.821 52.377 114.838 52.2607 114.838 52.1444C114.927 51.878 115.017 51.7003 115.106 51.5227C115.195 51.3451 115.374 51.2563 115.642 51.1675C115.91 51.0786 116.178 51.0786 116.446 51.2563C116.625 51.3451 116.804 51.6115 116.893 51.9668C116.982 52.3221 116.982 52.6773 116.804 52.9438C116.625 53.2102 116.446 53.4767 116.178 53.5655L116.536 54.8977C117.161 54.6313 117.518 54.276 117.787 53.7431C118.055 53.2102 118.055 52.5885 117.876 51.7892C117.697 51.2563 117.518 50.901 117.25 50.5457C116.982 50.2793 116.714 50.0128 116.357 49.924C116 49.8352 115.642 49.8352 115.195 49.924C114.659 50.1017 114.391 50.2793 114.123 50.5457C113.855 50.8122 113.766 51.0786 113.677 51.4339L113.677 51.434C113.587 51.7892 113.498 52.1445 113.498 52.6773C113.498 52.9275 113.47 53.1213 113.445 53.2905V53.2906V53.2907C113.426 53.4217 113.409 53.538 113.409 53.6543C113.364 53.7431 113.319 53.8541 113.275 53.9651C113.23 54.0762 113.185 54.1872 113.14 54.276C112.962 54.4536 112.783 54.5425 112.515 54.6313C112.247 54.7201 111.979 54.7201 111.711 54.5425C111.443 54.3648 111.264 54.0984 111.175 53.7431C111.086 53.299 111.086 52.9438 111.264 52.6773C111.443 52.4109 111.622 52.1444 111.979 52.0556L111.622 50.8122C111.264 50.9898 110.907 51.1675 110.639 51.5227C110.371 51.878 110.192 52.2332 110.103 52.6773C110.013 53.1214 110.013 53.5655 110.192 54.0984C110.281 54.6313 110.549 55.0753 110.817 55.3418ZM21.7397 82.6972L20.7569 83.0524L20.1315 81.0097L13.7879 83.0524L13.4305 81.8978L19.8635 79.8551L19.0593 77.7235L20.0422 77.457L21.7397 82.6972ZM23.7944 91.1342C24.1518 90.5125 24.4198 89.8908 24.4198 89.2691C24.5091 88.5586 24.3305 87.9369 23.9731 87.2264C23.6157 86.6046 23.1689 86.0717 22.6329 85.7165C22.0968 85.3612 21.4714 85.1836 20.7566 85.1836C20.0418 85.1836 19.4164 85.3612 18.7016 85.7165C17.9868 86.0717 17.4508 86.5158 17.0934 87.1375C16.736 87.7592 16.468 88.2921 16.468 89.0027C16.468 89.7132 16.5573 90.3349 16.9147 90.9566C17.2721 91.5783 17.7188 92.1112 18.2549 92.4665C18.791 92.8217 19.4164 92.9994 20.1312 92.9994C20.8459 92.9994 21.4714 92.8217 22.1861 92.4665C22.9009 92.2 23.437 91.6671 23.7944 91.1342ZM20.8459 86.5158C21.2927 86.5158 21.7394 86.6046 22.0968 86.8711C22.4542 87.0487 22.7222 87.404 22.9903 87.8481C23.1689 88.2921 23.2583 88.7362 23.2583 89.1803C23.2583 89.6244 23.0796 90.0685 22.8116 90.4237C22.5435 90.779 22.1861 91.1343 21.6501 91.4007C21.2033 91.5783 20.6672 91.756 20.2205 91.756C19.7738 91.756 19.327 91.6671 18.9697 91.4007C18.6123 91.2231 18.3442 90.8678 18.0762 90.4237C17.8975 89.9796 17.8082 89.5356 17.8082 89.0915C17.8082 88.6474 17.9868 88.2033 18.2549 87.8481C18.5229 87.4928 18.9697 87.0487 19.4164 86.8711C19.8631 86.6935 20.3992 86.5158 20.8459 86.5158ZM32.1929 98.772L31.4781 99.3937L30.0486 97.795L25.0452 102.236L24.2411 101.259L29.2445 96.8181L27.8149 95.2194L28.5297 94.5977L32.1929 98.772ZM33.2653 109.696L38.1794 103.746L37.1966 102.946L35.1416 105.433L32.3719 103.124L34.4268 100.637L33.444 99.8379L28.53 105.789L29.5128 106.588L31.7464 103.923L34.5162 106.233L32.2825 108.897L33.2653 109.696ZM44.5233 107.92C44.8807 108.453 45.0594 109.075 45.0594 109.785C45.0594 110.496 44.8807 111.117 44.5233 111.828C44.166 112.45 43.7192 112.982 43.0938 113.338C42.4684 113.693 41.9323 113.871 41.2175 113.959C40.5028 113.959 39.8773 113.782 39.2519 113.515C38.6265 113.16 38.0904 112.716 37.8224 112.183C37.465 111.65 37.2863 111.028 37.2863 110.318C37.2863 109.607 37.465 108.986 37.8224 108.275C38.1797 107.653 38.6265 107.121 39.2519 106.765C39.8773 106.41 40.5028 106.232 41.1282 106.232C41.7536 106.232 42.4684 106.41 43.0938 106.765C43.7192 106.943 44.166 107.387 44.5233 107.92ZM41.2175 107.298C40.7708 107.298 40.3241 107.476 39.9667 107.742C39.6093 108.009 39.2519 108.364 38.9839 108.897C38.7158 109.43 38.5371 109.874 38.5371 110.318C38.5371 110.762 38.6265 111.206 38.8945 111.561C39.1626 111.917 39.4306 112.272 39.8773 112.45C40.3241 112.716 40.7708 112.805 41.2175 112.805C41.6643 112.805 42.111 112.627 42.4684 112.361C42.8258 112.094 43.1832 111.739 43.4512 111.206C43.7192 110.673 43.8979 110.229 43.8979 109.785C43.8979 109.341 43.8086 108.897 43.5405 108.542C43.2725 108.186 43.0045 107.831 42.5577 107.653C42.111 107.387 41.6643 107.209 41.2175 107.298ZM49.5263 117.423C49.973 117.423 50.3304 117.246 50.5985 116.979C50.8665 116.713 51.0452 116.446 50.8665 116.18C51.0452 115.647 51.0452 115.292 50.9558 114.936C50.8665 114.581 50.6878 114.315 50.4198 114.048C50.1517 113.782 49.8837 113.515 49.437 113.249C49.2894 113.102 49.1419 112.982 49.0093 112.875L49.0092 112.875L49.0091 112.875C48.9008 112.787 48.8025 112.707 48.7222 112.627C48.5435 112.45 48.4541 112.361 48.3648 112.094C48.2754 111.828 48.2754 111.65 48.3648 111.384C48.4541 111.028 48.6328 110.851 48.9009 110.762C49.1689 110.673 49.437 110.673 49.7943 110.762C50.2411 110.94 50.4198 111.117 50.5985 111.384C50.7771 111.65 50.7771 111.917 50.7771 112.183L52.028 112.627C52.2067 112.005 52.1173 111.473 51.76 110.94C51.4026 110.407 50.8665 110.051 50.1517 109.785C49.705 109.607 49.2583 109.607 48.8115 109.607C48.3648 109.696 48.0074 109.874 47.7394 110.051C47.4713 110.229 47.2033 110.584 47.1139 110.94C46.9352 111.384 46.9352 111.739 47.0246 112.094C47.1139 112.45 47.2926 112.716 47.5607 112.982C47.8287 113.249 48.0968 113.515 48.5435 113.782C48.6385 113.853 48.7272 113.917 48.8096 113.977L48.8107 113.978L48.8115 113.979C49.0381 114.143 49.2168 114.273 49.3476 114.403C49.5788 114.48 49.6771 114.689 49.757 114.859L49.7571 114.859L49.7577 114.86C49.7702 114.887 49.7823 114.912 49.7943 114.936C49.8837 115.114 49.8837 115.38 49.7943 115.647C49.705 115.913 49.5263 116.18 49.2583 116.269C48.9902 116.357 48.7222 116.357 48.3648 116.269C48.0074 116.18 47.7394 115.913 47.5607 115.647C47.382 115.292 47.2926 115.025 47.382 114.67L46.1311 114.226C45.9524 114.67 46.0418 115.114 46.1311 115.469C46.3098 115.913 46.4885 116.269 46.8459 116.535C47.2033 116.801 47.5607 117.068 48.0968 117.246C48.6328 117.423 49.0796 117.423 49.5263 117.423ZM55.9594 112.363L55.5127 114.672L58.2824 115.205L58.1037 116.182L55.334 115.649L54.8873 117.958L58.0144 118.491L57.8357 119.468L53.4577 118.668L54.7979 111.119L59.1759 111.918L58.9972 112.895L55.9594 112.363ZM73.0244 119.556L74.2753 111.74L72.9351 111.829L72.1309 118.135L69.8973 112.095L68.5571 112.184L67.3956 118.579L65.43 112.451L64.0898 112.54L66.6808 120L68.1997 119.911L69.3612 113.872L71.5055 119.645L73.0244 119.556ZM81.7808 109.432L84.0144 116.803L82.8529 117.159L81.8701 113.872L78.3856 114.938L79.3684 118.224L78.2069 118.58L75.9733 111.208L77.1348 110.853L78.1176 113.961L81.6021 112.895L80.6193 109.787L81.7808 109.432ZM90.7152 107.121C90.0898 106.766 89.4644 106.499 88.8389 106.499C88.1242 106.41 87.4987 106.588 86.8733 106.943C86.2479 107.299 85.7118 107.743 85.3544 108.276C84.997 108.808 84.8183 109.43 84.8183 110.141C84.8183 110.851 84.997 111.473 85.3544 112.183C85.7118 112.894 86.1585 113.427 86.784 113.782C87.4094 114.137 87.9455 114.404 88.6602 114.404C89.375 114.404 90.0004 114.315 90.6259 113.96C91.2513 113.604 91.7874 113.16 92.1447 112.627C92.5021 112.095 92.6808 111.473 92.6808 110.762C92.6808 110.052 92.5021 109.43 92.1447 108.72C91.7874 108.009 91.2513 107.476 90.7152 107.121ZM86.0692 110.052C86.0692 109.608 86.1585 109.164 86.4266 108.808C86.5923 108.479 86.9117 108.226 87.3136 107.907L87.4094 107.831C87.8561 107.654 88.3028 107.565 88.7496 107.565C89.1963 107.565 89.6431 107.743 90.0004 108.009C90.3578 108.276 90.7152 108.631 90.9832 109.164C91.1619 109.608 91.3406 110.141 91.3406 110.585C91.3406 111.029 91.1619 111.473 90.9832 111.828C90.8046 112.183 90.4472 112.45 90.0004 112.716C89.5537 112.983 89.107 113.072 88.6602 113.072C88.2135 113.072 87.7668 112.894 87.4094 112.627C87.052 112.361 86.6946 112.006 86.4266 111.473C86.2479 111.029 86.0692 110.496 86.0692 110.052ZM102.866 104.99L99.3814 104.013L98.756 104.635L100.811 106.944L99.9175 107.743L94.7354 102.059L96.7904 100.283C97.4158 99.661 98.0412 99.3945 98.6666 99.3945C99.2921 99.3945 99.8282 99.661 100.275 100.194C100.722 100.638 100.9 101.082 100.9 101.615C100.9 102.148 100.722 102.592 100.275 103.125L103.849 104.102L102.866 104.99ZM98.1306 103.924L99.1134 103.036C99.8282 102.325 99.9175 101.704 99.3814 101.082C99.1134 100.727 98.756 100.638 98.488 100.638C98.1306 100.638 97.7732 100.816 97.4158 101.171L96.433 102.059L98.1306 103.924ZM103.313 98.2395L101.526 96.7296L103.581 94.2428L102.777 93.6211L100.008 96.9961L105.994 101.881L108.763 98.506L107.959 97.8842L105.904 100.282L104.028 98.7724L105.815 96.6408L105.1 96.0191L103.313 98.2395ZM111.444 91.2233L109.746 93.9766L110.908 95.3088L110.193 96.4634L105.1 90.1575L105.815 88.9141L113.767 90.3351L113.052 91.4897L111.444 91.2233ZM110.372 91.0456L106.619 90.3351L109.031 93.266L110.372 91.0456ZM116.358 83.2298C116.268 82.5192 116 81.9863 115.554 81.4534C115.107 80.9205 114.481 80.5653 113.856 80.3876C113.141 80.1212 112.426 80.0324 111.801 80.1212C111.176 80.21 110.64 80.4765 110.103 80.9205C109.567 81.3646 109.121 81.9863 108.853 82.7857L107.959 85.1837L115.196 87.8482L116.09 85.4501C116.358 84.6508 116.447 83.9403 116.358 83.2298ZM113.409 81.4534C114.213 81.8087 114.749 82.2528 115.018 82.8745C115.286 83.4962 115.196 84.2067 115.018 85.0949L114.571 86.2495L109.389 84.3844L109.835 83.2298C110.193 82.3416 110.64 81.7199 111.265 81.4534C111.89 81.187 112.605 81.187 113.409 81.4534ZM15.2161 69.0202C15.8083 69.0202 16.2883 68.5431 16.2883 67.9545C16.2883 67.3658 15.8083 66.8887 15.2161 66.8887C14.624 66.8887 14.144 67.3658 14.144 67.9545C14.144 68.5431 14.624 69.0202 15.2161 69.0202ZM116.356 67.9545C116.356 68.5431 115.876 69.0202 115.284 69.0202C114.692 69.0202 114.212 68.5431 114.212 67.9545C114.212 67.3658 114.692 66.8887 115.284 66.8887C115.876 66.8887 116.356 67.3658 116.356 67.9545Z" fill="#646D75"/>
<path d="M65.5966 77.0921V69.0099L75.3468 72.6513V77.0921H65.5966ZM53.789 72.6513L63.7181 69.0099V77.0921H53.789V72.6513ZM69.1747 63.8586L64.6127 62.1711L59.9612 63.8586V61.2829L64.6127 59.5954L69.1747 61.2829V63.8586ZM64.6127 66.7895L58.0827 69.1875V66.523L64.6127 64.125L70.9637 66.523V69.1875L64.6127 66.7895ZM75.2574 55.7763V70.6974L72.7527 69.8092V65.2796L70.8743 64.5691V60.1283L64.5232 57.7303L58.0827 60.1283V64.5691L56.2042 65.2796V69.898L53.6996 70.7862V55.7763H75.2574ZM77.0464 54H52V78.8684H77.0464V54Z" fill="#027AC2"/>
</svg>
