<svg width="106" height="108" viewBox="0 0 106 108" fill="none" xmlns="http://www.w3.org/2000/svg">
<path fill-rule="evenodd" clip-rule="evenodd" d="M56.8247 5.95066C56.4674 6.48355 56.0206 6.92763 55.3952 7.28289C54.7698 7.54934 54.055 7.72697 53.1615 7.72697H50.5705L50.7492 0H53.3402C54.2337 0 54.9485 0.177632 55.4845 0.532895C56.11 0.888158 56.5567 1.33224 56.8247 1.86513C57.0928 2.48684 57.2715 3.10855 57.2715 3.90789C57.2715 4.70724 57.1821 5.41776 56.8247 5.95066ZM55.3059 5.95066C55.8419 5.50658 56.11 4.79605 56.11 3.90789C56.11 3.01974 55.9313 2.39803 55.3952 1.86513C54.9485 1.42105 54.2337 1.15461 53.2509 1.06579H52L51.9107 6.57237H53.1615C54.055 6.66118 54.7698 6.39474 55.3059 5.95066ZM48.5152 7.01686L45.8348 7.37212L44.852 0.710938L43.6011 0.888569L44.6733 8.52673L48.6939 7.99383L48.5152 7.01686ZM41.278 9.32566L38.5082 6.92763L37.6148 7.19408L38.5082 10.125L37.3467 10.4803L35.1131 3.10855L37.7041 2.30921C38.5082 2.04276 39.223 2.04276 39.8484 2.30921C40.3845 2.57566 40.8312 3.10855 41.0099 3.73026C41.1886 4.35197 41.0993 4.88487 40.9206 5.32895C40.7419 5.77303 40.2952 6.21711 39.7591 6.48355L42.6182 8.88158L41.278 9.32566ZM37.3467 6.30592L38.6869 5.86184C39.6697 5.59539 40.0271 4.97368 39.7591 4.17434C39.6697 3.73026 39.4017 3.46382 39.1336 3.375C38.8656 3.19737 38.4189 3.19737 37.9721 3.375L36.6319 3.73026L37.3467 6.30592ZM31.986 6.21741C31.4499 5.86215 30.8244 5.5957 30.1097 5.5957C29.4843 5.5957 28.7695 5.77333 28.0547 6.03978C27.4293 6.39505 26.8932 6.83912 26.5358 7.37202C26.1784 7.90491 25.9997 8.52662 25.9997 9.23715C25.9997 9.94768 26.1784 10.5694 26.5358 11.2799C26.8932 11.9904 27.4293 12.5233 27.9654 12.8786C28.5908 13.3227 29.3056 13.5003 29.931 13.5003C30.5564 13.5003 31.2712 13.4115 31.8966 13.0562C32.522 12.701 33.0581 12.2569 33.4155 11.724C33.7729 11.1911 33.9516 10.5694 33.9516 9.85886C33.9516 9.14833 33.7729 8.52662 33.4155 7.8161C33.0581 7.10557 32.522 6.57268 31.986 6.21741ZM27.3399 9.23715C27.3399 8.79307 27.4293 8.34899 27.6973 7.99373C27.876 7.63847 28.2334 7.2832 28.6801 7.01676C29.1269 6.83912 29.5736 6.75031 30.0203 6.75031C30.4671 6.75031 30.9138 6.92794 31.2712 7.19439C31.6286 7.46083 31.986 7.8161 32.254 8.34899C32.4327 8.79307 32.6114 9.32597 32.6114 9.77005C32.6114 10.2141 32.4327 10.6582 32.254 11.0135C32.0753 11.3687 31.7179 11.6352 31.2712 11.9016C30.8244 12.1681 30.3777 12.2569 29.931 12.2569C29.4842 12.2569 29.0375 12.0793 28.6801 11.8128C28.3227 11.5464 27.876 11.1023 27.6973 10.6582C27.5186 10.2141 27.3399 9.68123 27.3399 9.23715ZM21.8006 9.76953L25.3745 16.8748L24.213 17.8518L19.0309 14.388L21.7113 19.9833L20.5498 21.0491L14.0275 16.4307L15.0996 15.5426L20.1924 19.4505L17.3333 13.5886L18.4054 12.7005L23.8556 16.3419L20.7285 10.6577L21.8006 9.76953ZM10.2748 26.9105L8.30916 25.667L10.0961 22.9138L9.29197 22.3809L6.87961 26.1111L13.4019 30.3743L15.8143 26.644L14.9208 26.1111L13.1339 28.7756L11.0789 27.4434L12.6871 25.0453L11.883 24.5124L10.2748 26.9105ZM4.91391 29.4863L11.9723 32.5949L11.4362 33.7495L8.21973 32.3284L6.79019 35.6146L10.0067 37.0357L9.47058 38.1903L2.41221 35.0817L2.94828 33.9271L5.89672 35.2594L7.32627 31.9732L4.37783 30.6409L4.91391 29.4863ZM1.3402 38.1914L2.32301 38.4579L1.78693 40.5006L8.30923 42.0993L8.04119 43.3427L1.51889 41.744L0.982812 43.7868L0 43.5204L1.3402 38.1914ZM69.1542 8.25966C69.2436 7.81558 69.2436 7.3715 69.0649 6.92743C68.8862 6.48335 68.6181 6.2169 68.0821 6.03927C68.5288 6.03927 68.8862 5.95045 69.2436 5.684C69.6009 5.41756 69.869 5.06229 69.9583 4.61822C70.137 4.08532 70.0477 3.55243 69.7796 3.10835C69.4222 2.66427 68.8862 2.309 68.1714 2.13137L65.223 1.33203L63.168 8.79256L66.1164 9.5919C66.9205 9.85835 67.546 9.85835 68.0821 9.5919C68.6181 9.32545 68.9755 8.88137 69.1542 8.25966ZM67.9927 7.72677C67.9034 8.17085 67.6353 8.34848 67.3673 8.52611C67.0992 8.61493 66.6525 8.61493 66.2058 8.52611L64.6869 8.08203L65.3123 5.684L66.8312 6.12808C67.2779 6.30572 67.6353 6.48335 67.814 6.74979C68.0821 7.01624 68.0821 7.3715 67.9927 7.72677ZM67.0992 5.32874L65.5804 4.88466L66.2058 2.66427L67.7247 3.19716C68.1714 3.28598 68.4394 3.46361 68.6181 3.73006C68.7968 3.9965 68.7968 4.26295 68.7075 4.61822C68.6181 4.97348 68.4394 5.15111 68.1714 5.32874C67.9034 5.41756 67.546 5.41756 67.0992 5.32874ZM74.6041 5.50596L73.6213 7.63754L76.2123 8.79215L75.8549 9.6803L73.2639 8.43688L72.2811 10.6573L75.1402 11.9895L74.6934 12.8777L70.6729 11.0125L73.8893 3.99609L77.9099 5.86123L77.4632 6.74938L74.6041 5.50596ZM80.5009 15.2767L78.2672 13.8557L81.9304 8.17146L80.8583 7.46094L76.659 13.9445L79.9648 16.0761L80.5009 15.2767ZM90.7759 15.4537C90.9546 16.0754 91.044 16.786 90.8653 17.4077C90.6866 18.1182 90.4185 18.6511 89.8824 19.2728C89.3464 19.8057 88.8103 20.2498 88.0955 20.4274C87.4701 20.6939 86.7553 20.6939 86.1299 20.5162C85.5045 20.3386 84.879 20.0722 84.343 19.6281C83.8069 19.184 83.4495 18.5623 83.2708 17.9406C83.0921 17.3189 83.0028 16.6083 83.1815 15.9866C83.3602 15.3649 83.6282 14.7432 84.1643 14.1215C84.7003 13.5886 85.2364 13.1445 85.9512 12.9669C86.5766 12.7893 87.2914 12.7004 87.9168 12.8781C88.5423 13.0557 89.1677 13.3222 89.7038 13.7662C90.1505 14.2991 90.5079 14.832 90.7759 15.4537ZM87.6488 14.0327C87.202 13.9439 86.7553 13.9439 86.3086 14.1215C85.8619 14.2991 85.4151 14.5656 85.0577 15.0097C84.7003 15.4537 84.4323 15.8978 84.343 16.3419C84.2536 16.786 84.2536 17.23 84.343 17.6741C84.5217 18.1182 84.7003 18.4735 85.1471 18.8287C85.5045 19.184 85.9512 19.3616 86.3086 19.4504C86.666 19.5393 87.202 19.5393 87.6488 19.3616C88.0955 19.184 88.5423 18.9175 88.8996 18.4735C89.257 18.0294 89.5251 17.5853 89.6144 17.1412C89.7038 16.6972 89.7038 16.2531 89.6144 15.809C89.4357 15.3649 89.257 15.0097 88.8996 14.6544C88.8139 14.6032 88.7314 14.5521 88.6509 14.5022L88.6508 14.5021C88.3123 14.2921 88.0097 14.1044 87.6488 14.0327ZM91.7592 27.8886L92.4739 28.8655L98.8175 24.2471L98.1028 23.2701L93.4567 26.6451L95.7797 20.2504L95.065 19.2734L88.8107 23.8919L89.5255 24.8688L94.0822 21.4938L91.7592 27.8886ZM102.749 33.2162C102.57 33.9267 102.213 34.5484 101.587 35.0813L101.051 33.9267C101.319 33.5714 101.498 33.2162 101.587 32.7721C101.677 32.328 101.587 31.8839 101.319 31.351C101.14 30.907 100.783 30.5517 100.426 30.2853C100.068 30.0188 99.6216 29.93 99.1748 29.93C98.7281 29.93 98.192 30.0188 97.7453 30.2853C97.2092 30.5517 96.7625 30.8182 96.4944 31.2622C96.2264 31.6175 96.0477 32.0616 96.0477 32.5056C96.0477 32.9497 96.1371 33.3938 96.3158 33.9267C96.5838 34.5484 97.0305 34.9037 97.5666 35.1701C98.1027 35.4366 98.7281 35.4366 99.4429 35.2589L98.192 32.6833L98.9961 32.328L100.694 35.7918L99.6216 36.3247C99.0855 36.5024 98.5494 36.5024 97.924 36.4135C97.3879 36.3247 96.8518 36.1471 96.4051 35.7918C95.9584 35.4366 95.5116 34.9925 95.2436 34.3708C94.8862 33.6603 94.7969 33.0385 94.7969 32.328C94.7969 31.6175 95.0649 31.0846 95.5116 30.5517C95.9584 30.0188 96.4944 29.5747 97.1199 29.2195C97.7453 28.8642 98.4601 28.7754 99.1748 28.7754C99.8896 28.7754 100.426 29.0418 101.051 29.3971C101.587 29.7524 102.034 30.2853 102.391 30.9958C102.749 31.7063 102.838 32.4168 102.749 33.2162ZM98.8175 43.3418C99.0855 43.6971 99.4429 43.8747 99.8003 43.9635C100.121 44.1228 100.441 44.0678 100.891 43.9907L100.892 43.9906L100.893 43.9903C100.944 43.9816 100.997 43.9725 101.051 43.9635C101.498 43.8747 101.855 43.6082 102.123 43.3418C102.169 43.2501 102.216 43.1643 102.26 43.0814L102.26 43.0812C102.388 42.8429 102.504 42.6283 102.57 42.3648C102.659 42.0984 102.749 41.6543 102.749 41.1214C102.749 40.8712 102.777 40.6774 102.802 40.5082V40.5081C102.821 40.377 102.838 40.2607 102.838 40.1444C102.927 39.878 103.017 39.7003 103.106 39.5227C103.195 39.3451 103.374 39.2563 103.642 39.1675C103.91 39.0786 104.178 39.0786 104.446 39.2563C104.625 39.3451 104.804 39.6115 104.893 39.9668C104.982 40.3221 104.982 40.6773 104.804 40.9438C104.625 41.2102 104.446 41.4767 104.178 41.5655L104.536 42.8977C105.161 42.6313 105.518 42.276 105.787 41.7431C106.055 41.2102 106.055 40.5885 105.876 39.7892C105.697 39.2563 105.518 38.901 105.25 38.5457C104.982 38.2793 104.714 38.0128 104.357 37.924C104 37.8352 103.642 37.8352 103.195 37.924C102.659 38.1017 102.391 38.2793 102.123 38.5457C101.855 38.8122 101.766 39.0786 101.677 39.4339L101.677 39.434C101.587 39.7892 101.498 40.1445 101.498 40.6773C101.498 40.9275 101.47 41.1213 101.445 41.2905V41.2906V41.2907C101.426 41.4217 101.409 41.538 101.409 41.6543C101.364 41.7431 101.319 41.8541 101.275 41.9651C101.23 42.0762 101.185 42.1872 101.14 42.276C100.962 42.4536 100.783 42.5425 100.515 42.6313C100.247 42.7201 99.979 42.7201 99.7109 42.5425C99.4429 42.3648 99.2642 42.0984 99.1749 41.7431C99.0855 41.299 99.0855 40.9438 99.2642 40.6773C99.4429 40.4109 99.6216 40.1444 99.979 40.0556L99.6216 38.8122C99.2642 38.9898 98.9068 39.1675 98.6388 39.5227C98.3708 39.878 98.1921 40.2332 98.1027 40.6773C98.0134 41.1214 98.0134 41.5655 98.1921 42.0984C98.2814 42.6313 98.5494 43.0753 98.8175 43.3418ZM9.73973 70.6972L8.75692 71.0524L8.1315 69.0097L1.78789 71.0524L1.43051 69.8978L7.86346 67.8551L7.05934 65.7235L8.04215 65.457L9.73973 70.6972ZM11.7944 79.1342C12.1518 78.5125 12.4198 77.8908 12.4198 77.2691C12.5091 76.5586 12.3305 75.9369 11.9731 75.2264C11.6157 74.6046 11.1689 74.0717 10.6329 73.7165C10.0968 73.3612 9.47136 73.1836 8.75659 73.1836C8.04182 73.1836 7.41639 73.3612 6.70162 73.7165C5.98685 74.0717 5.45077 74.5158 5.09338 75.1375C4.736 75.7592 4.46796 76.2921 4.46796 77.0027C4.46796 77.7132 4.5573 78.3349 4.91469 78.9566C5.27207 79.5783 5.71881 80.1112 6.25489 80.4665C6.79097 80.8217 7.41639 80.9994 8.13116 80.9994C8.84594 80.9994 9.47136 80.8217 10.1861 80.4665C10.9009 80.2 11.437 79.6671 11.7944 79.1342ZM8.84594 74.5158C9.29267 74.5158 9.7394 74.6046 10.0968 74.8711C10.4542 75.0487 10.7222 75.404 10.9903 75.8481C11.1689 76.2921 11.2583 76.7362 11.2583 77.1803C11.2583 77.6244 11.0796 78.0685 10.8116 78.4237C10.5435 78.779 10.1861 79.1343 9.65006 79.4007C9.20332 79.5783 8.66724 79.756 8.22051 79.756C7.77378 79.756 7.32705 79.6671 6.96966 79.4007C6.61227 79.2231 6.34423 78.8678 6.07619 78.4237C5.8975 77.9796 5.80815 77.5356 5.80815 77.0915C5.80815 76.6474 5.98685 76.2033 6.25489 75.8481C6.52293 75.4928 6.96966 75.0487 7.41639 74.8711C7.86312 74.6935 8.3992 74.5158 8.84594 74.5158ZM20.1929 86.772L19.4781 87.3937L18.0486 85.795L13.0452 90.2358L12.2411 89.2588L17.2445 84.8181L15.8149 83.2194L16.5297 82.5977L20.1929 86.772ZM21.2653 97.6964L26.1794 91.7458L25.1966 90.9464L23.1416 93.4333L20.3719 91.1241L22.4268 88.6372L21.444 87.8379L16.53 93.7885L17.5128 94.5879L19.7464 91.9234L22.5162 94.2326L20.2825 96.8971L21.2653 97.6964ZM32.5233 95.9199C32.8807 96.4528 33.0594 97.0745 33.0594 97.7851C33.0594 98.4956 32.8807 99.1173 32.5233 99.8278C32.166 100.45 31.7192 100.982 31.0938 101.338C30.4684 101.693 29.9323 101.871 29.2175 101.959C28.5028 101.959 27.8773 101.782 27.2519 101.515C26.6265 101.16 26.0904 100.716 25.8224 100.183C25.465 99.6502 25.2863 99.0285 25.2863 98.3179C25.2863 97.6074 25.465 96.9857 25.8224 96.2752C26.1797 95.6535 26.6265 95.1206 27.2519 94.7653C27.8773 94.41 28.5028 94.2324 29.1282 94.2324C29.7536 94.2324 30.4684 94.41 31.0938 94.7653C31.7192 94.9429 32.166 95.387 32.5233 95.9199ZM29.2175 95.2982C28.7708 95.2982 28.3241 95.4758 27.9667 95.7423C27.6093 96.0087 27.2519 96.364 26.9839 96.8969C26.7158 97.4298 26.5371 97.8739 26.5371 98.3179C26.5371 98.762 26.6265 99.2061 26.8945 99.5614C27.1626 99.9166 27.4306 100.272 27.8773 100.45C28.3241 100.716 28.7708 100.805 29.2175 100.805C29.6643 100.805 30.111 100.627 30.4684 100.361C30.8258 100.094 31.1832 99.739 31.4512 99.2061C31.7192 98.6732 31.8979 98.2291 31.8979 97.7851C31.8979 97.341 31.8086 96.8969 31.5405 96.5416C31.2725 96.1864 31.0045 95.8311 30.5577 95.6535C30.111 95.387 29.6643 95.2094 29.2175 95.2982ZM37.5263 105.423C37.973 105.423 38.3304 105.246 38.5985 104.979C38.8665 104.713 39.0452 104.446 38.8665 104.18C39.0452 103.647 39.0452 103.292 38.9558 102.936C38.8665 102.581 38.6878 102.315 38.4198 102.048C38.1517 101.782 37.8837 101.515 37.437 101.249C37.2894 101.102 37.1419 100.982 37.0093 100.875L37.0092 100.875L37.0091 100.875C36.9008 100.787 36.8025 100.707 36.7222 100.627C36.5435 100.45 36.4541 100.361 36.3648 100.094C36.2754 99.8278 36.2754 99.6502 36.3648 99.3837C36.4541 99.0285 36.6328 98.8508 36.9009 98.762C37.1689 98.6732 37.437 98.6732 37.7943 98.762C38.2411 98.9397 38.4198 99.1173 38.5985 99.3837C38.7771 99.6502 38.7771 99.9166 38.7771 100.183L40.028 100.627C40.2067 100.005 40.1173 99.4726 39.76 98.9397C39.4026 98.4068 38.8665 98.0515 38.1517 97.785C37.705 97.6074 37.2583 97.6074 36.8115 97.6074C36.3648 97.6962 36.0074 97.8739 35.7394 98.0515C35.4713 98.2291 35.2033 98.5844 35.1139 98.9397C34.9352 99.3837 34.9352 99.739 35.0246 100.094C35.1139 100.45 35.2926 100.716 35.5607 100.982C35.8287 101.249 36.0968 101.515 36.5435 101.782C36.6385 101.853 36.7272 101.917 36.8096 101.977L36.8107 101.978L36.8115 101.979C37.0381 102.143 37.2168 102.273 37.3476 102.403C37.5788 102.48 37.6771 102.689 37.757 102.859L37.7571 102.859L37.7577 102.86C37.7702 102.887 37.7823 102.912 37.7943 102.936C37.8837 103.114 37.8837 103.38 37.7943 103.647C37.705 103.913 37.5263 104.18 37.2583 104.269C36.9902 104.357 36.7222 104.357 36.3648 104.269C36.0074 104.18 35.7394 103.913 35.5607 103.647C35.382 103.292 35.2926 103.025 35.382 102.67L34.1311 102.226C33.9524 102.67 34.0418 103.114 34.1311 103.469C34.3098 103.913 34.4885 104.269 34.8459 104.535C35.2033 104.801 35.5607 105.068 36.0968 105.246C36.6328 105.423 37.0796 105.423 37.5263 105.423ZM43.9594 100.363L43.5127 102.672L46.2824 103.205L46.1037 104.182L43.334 103.649L42.8873 105.958L46.0144 106.491L45.8357 107.468L41.4577 106.668L42.7979 99.1191L47.1759 99.9185L46.9972 100.895L43.9594 100.363ZM61.0244 107.556L62.2753 99.7402L60.9351 99.829L60.1309 106.135L57.8973 100.095L56.5571 100.184L55.3956 106.579L53.43 100.451L52.0898 100.54L54.6808 108L56.1997 107.911L57.3612 101.872L59.5055 107.645L61.0244 107.556ZM69.7808 97.4316L72.0144 104.803L70.8529 105.159L69.8701 101.872L66.3856 102.938L67.3684 106.224L66.2069 106.58L63.9733 99.208L65.1348 98.8527L66.1176 101.961L69.6021 100.895L68.6193 97.7869L69.7808 97.4316ZM78.7152 95.1209C78.0898 94.7656 77.4644 94.4992 76.8389 94.4992C76.1242 94.4104 75.4987 94.588 74.8733 94.9433C74.2479 95.2985 73.7118 95.7426 73.3544 96.2755C72.997 96.8084 72.8183 97.4301 72.8183 98.1406C72.8183 98.8512 72.997 99.4729 73.3544 100.183C73.7118 100.894 74.1585 101.427 74.784 101.782C75.4094 102.137 75.9455 102.404 76.6602 102.404C77.375 102.404 78.0004 102.315 78.6259 101.96C79.2513 101.604 79.7874 101.16 80.1447 100.627C80.5021 100.095 80.6808 99.4729 80.6808 98.7624C80.6808 98.0518 80.5021 97.4301 80.1447 96.7196C79.7874 96.0091 79.2513 95.4762 78.7152 95.1209ZM74.0692 98.0518C74.0692 97.6077 74.1585 97.1637 74.4266 96.8084C74.5923 96.4789 74.9117 96.2258 75.3136 95.9074L75.4094 95.8314C75.8561 95.6538 76.3028 95.565 76.7496 95.565C77.1963 95.565 77.6431 95.7426 78.0004 96.0091C78.3578 96.2755 78.7152 96.6308 78.9832 97.1637C79.1619 97.6077 79.3406 98.1406 79.3406 98.5847C79.3406 99.0288 79.1619 99.4729 78.9832 99.8281C78.8046 100.183 78.4472 100.45 78.0004 100.716C77.5537 100.983 77.107 101.072 76.6602 101.072C76.2135 101.072 75.7668 100.894 75.4094 100.627C75.052 100.361 74.6946 100.006 74.4266 99.4729C74.2479 99.0288 74.0692 98.4959 74.0692 98.0518ZM90.8659 92.9899L87.3814 92.0129L86.756 92.6347L88.811 94.9439L87.9175 95.7432L82.7354 90.059L84.7904 88.2827C85.4158 87.661 86.0412 87.3945 86.6666 87.3945C87.2921 87.3945 87.8282 87.661 88.2749 88.1939C88.7216 88.638 88.9003 89.082 88.9003 89.6149C88.9003 90.1478 88.7216 90.5919 88.2749 91.1248L91.8488 92.1018L90.8659 92.9899ZM86.1306 91.9241L87.1134 91.036C87.8282 90.3254 87.9175 89.7037 87.3814 89.082C87.1134 88.7268 86.756 88.638 86.488 88.638C86.1306 88.638 85.7732 88.8156 85.4158 89.1708L84.433 90.059L86.1306 91.9241ZM91.3133 86.2395L89.5264 84.7296L91.5814 82.2428L90.7773 81.6211L88.0075 84.9961L93.9937 89.881L96.7635 86.506L95.9594 85.8842L93.9044 88.2823L92.0281 86.7724L93.815 84.6408L93.1003 84.0191L91.3133 86.2395ZM99.4438 79.2233L97.7462 81.9766L98.9077 83.3088L98.1929 84.4634L93.1002 78.1575L93.815 76.9141L101.767 78.3351L101.052 79.4897L99.4438 79.2233ZM98.3716 79.0456L94.6191 78.3351L97.0314 81.266L98.3716 79.0456ZM104.358 71.2298C104.268 70.5192 104 69.9863 103.554 69.4534C103.107 68.9205 102.481 68.5653 101.856 68.3876C101.141 68.1212 100.426 68.0324 99.801 68.1212C99.1756 68.21 98.6395 68.4765 98.1034 68.9205C97.5674 69.3646 97.1206 69.9863 96.8526 70.7857L95.9591 73.1837L103.196 75.8482L104.09 73.4501C104.358 72.6508 104.447 71.9403 104.358 71.2298ZM101.409 69.4534C102.213 69.8087 102.749 70.2528 103.018 70.8745C103.286 71.4962 103.196 72.2067 103.018 73.0949L102.571 74.2495L97.3887 72.3844L97.8354 71.2298C98.1928 70.3416 98.6395 69.7199 99.2649 69.4534C99.8904 69.187 100.605 69.187 101.409 69.4534ZM3.21612 57.0202C3.80826 57.0202 4.28828 56.5431 4.28828 55.9545C4.28828 55.3658 3.80826 54.8887 3.21612 54.8887C2.62399 54.8887 2.14397 55.3658 2.14397 55.9545C2.14397 56.5431 2.62399 57.0202 3.21612 57.0202ZM104.356 55.9545C104.356 56.5431 103.876 57.0202 103.284 57.0202C102.692 57.0202 102.212 56.5431 102.212 55.9545C102.212 55.3658 102.692 54.8887 103.284 54.8887C103.876 54.8887 104.356 55.3658 104.356 55.9545Z" fill="#8C959C"/>
<path d="M53.5966 65.0921V57.0099L63.3468 60.6513V65.0921H53.5966ZM41.789 60.6513L51.7181 57.0099V65.0921H41.789V60.6513ZM57.1747 51.8586L52.6127 50.1711L47.9612 51.8586V49.2829L52.6127 47.5954L57.1747 49.2829V51.8586ZM52.6127 54.7895L46.0827 57.1875V54.523L52.6127 52.125L58.9637 54.523V57.1875L52.6127 54.7895ZM63.2574 43.7763V58.6974L60.7527 57.8092V53.2796L58.8743 52.5691V48.1283L52.5232 45.7303L46.0827 48.1283V52.5691L44.2042 53.2796V57.898L41.6996 58.7862V43.7763H63.2574ZM65.0464 42H40V66.8684H65.0464V42Z" fill="#8C959C"/>
</svg>
