<svg width="40" height="40" viewBox="0 0 40 40" fill="none" xmlns="http://www.w3.org/2000/svg">
<path d="M0 20C0 8.95431 8.95431 0 20 0C31.0457 0 40 8.95431 40 20C40 31.0457 31.0457 40 20 40C8.95431 40 0 31.0457 0 20Z" fill="#F1F5F8"/>
<path d="M14.8986 15.27V21.472C14.8986 22.2093 15.09 22.7647 15.4726 23.138C15.8646 23.5113 16.406 23.698 17.0966 23.698C17.7966 23.698 18.338 23.5113 18.7206 23.138C19.1126 22.7647 19.3086 22.2093 19.3086 21.472V15.27H20.9046V21.444C20.9046 22.2373 20.732 22.9093 20.3866 23.46C20.0413 24.0107 19.5793 24.4213 19.0006 24.692C18.422 24.9627 17.7826 25.098 17.0826 25.098C16.3826 25.098 15.7433 24.9627 15.1646 24.692C14.5953 24.4213 14.1426 24.0107 13.8066 23.46C13.4706 22.9093 13.3026 22.2373 13.3026 21.444V15.27H14.8986ZM24.1587 23.712H27.4487V25H22.5627V15.27H24.1587V23.712Z" fill="#646D75"/>
</svg>
